<?xml version="1.0" encoding="UTF-8"?><svg xmlns="http://www.w3.org/2000/svg" width="128" height="128" viewBox="0 0 128 128"><defs><style>.cls-1{fill:#fff;}</style></defs><g id="Calque_2_-_copie"><path class="cls-1" d="M84.14,118.89c-.02-2.07-.96-3.24-2.57-3.21-1.53.03-2.46,1.18-2.49,3.14-.02,1.42,0,2.85,0,4.31h-30.13c0-1.71.06-3.32-.02-4.92-.08-1.54-1.17-2.55-2.56-2.53-1.39.02-2.43,1.05-2.48,2.6-.06,1.68-.08,3.36,0,5.04.15,2.71,2.24,4.86,4.95,4.88,10.08.06,20.16.06,30.24,0,2.88-.02,4.96-2.23,5.05-5.14.04-1.39.02-2.78,0-4.17Z"/><path class="cls-1" d="M61.3,119.12c1.68,1.64,3.72,1.64,5.4,0,3.1-3.04,6.17-6.11,9.21-9.22,1.63-1.67,1.64-3.78.14-5.26-1.49-1.47-3.59-1.42-5.26.21-.89.87-1.68,1.85-2.51,2.78-.44-.77-.49-1.26-.49-1.76,0-4.92-.03-9.85.01-14.77.01-1.4-.55-2.03-1.96-1.98-1.21.05-2.43.04-3.65,0-1.41-.05-1.98.58-1.96,1.98.04,3.48.01,6.95,0,10.43,0,1.94,0,3.88,0,5.82-.14.07-.28.14-.42.21-.86-.91-1.68-1.85-2.58-2.72-1.67-1.61-3.78-1.67-5.27-.2-1.5,1.48-1.5,3.59.14,5.26,3.04,3.11,6.11,6.18,9.21,9.22Z"/></g><g id="Calque_5"><path class="cls-1" d="M105.06,42.74c-.04.44-.08.89-.12,1.33-.7,8.75-3.98,16.48-9.31,23.39-3.36,4.35-7.37,7.98-12.08,10.84-3.81,2.31-7.89,3.94-12.29,4.72-2.69.48-5.41.67-8.14.45-8.03-.63-14.4-4.22-19.06-10.78-2.52-3.54-4.14-7.49-5.21-11.68-.6-2.33-.99-4.69-1.23-7.09-.25-2.53-.3-5.06-.12-7.59.34-4.64,1.3-9.12,3.48-13.28,1.92-3.67,4.62-6.6,8.34-8.52,2.05-1.06,4.23-1.7,6.51-2.01.72-.1,1.44-.16,2.17-.17-.4.33-.8.65-1.19.99-3.16,2.77-5.24,6.24-6.48,10.23-1.01,3.28-1.37,6.64-1.18,10.06.26,4.48,1.36,8.71,3.51,12.66,1.56,2.87,3.59,5.35,6.29,7.24,3.17,2.22,6.71,3.28,10.53,2.84,9.17-1.07,16.13-5.53,20.41-13.84,1.67-3.23,2.67-6.69,3.22-10.27.47-3.01.61-6.04.42-9.08-.46-7.54-2.44-14.64-6.18-21.22-1.14-2.01-2.45-3.9-3.95-5.67-.02-.03-.04-.06-.03-.14.76.51,1.52,1.01,2.27,1.53,3.92,2.72,7.48,5.84,10.51,9.53,4.1,4.98,6.94,10.58,8.19,16.94.35,1.75.57,3.52.64,5.3,0,.09.04.18.05.27v3.02Z"/><path class="cls-1" d="M65.28,1.42c.55.06,1.1.11,1.65.18,3.41.42,6.52,1.64,9.36,3.56,3.76,2.56,6.59,5.95,8.81,9.89,2.28,4.05,3.75,8.4,4.57,12.97.53,2.98.75,5.98.63,9-.2,5-1.25,9.79-3.66,14.22-2.09,3.84-4.99,6.88-8.87,8.95-2.29,1.22-4.73,1.99-7.29,2.38-.62.09-1.25.17-1.9.2.19-.15.37-.3.56-.45,4.04-3.27,6.89-7.35,8.37-12.34.88-2.98,1.2-6.03.98-9.12-.37-5.24-1.99-10.07-4.99-14.4-2.08-3-4.66-5.45-8.01-7.01-2.77-1.29-5.66-1.66-8.68-1.11-2.99.54-5.86,1.41-8.56,2.82-4.37,2.28-7.7,5.62-10.08,9.92-1.81,3.26-2.91,6.77-3.54,10.43-.51,2.92-.71,5.85-.63,8.81.19,6.89,1.51,13.54,4.35,19.85,1.01,2.25,2.25,4.36,3.92,6.2.38.42.74.85,1.15,1.23-1.63-.89-3.23-1.85-4.75-2.96-5.29-3.85-9.19-8.82-11.91-14.74-1.65-3.6-2.75-7.37-3.33-11.28-.47-3.14-.58-6.29-.35-9.46.3-4.13,1.17-8.12,2.68-11.97,2.26-5.73,5.62-10.72,10.1-14.95,4.31-4.07,9.29-7.03,14.95-8.83,2.63-.84,5.32-1.41,8.07-1.65,1.26-.11,2.51-.17,3.77-.26.14,0,.27-.04.4-.06.75,0,1.5,0,2.25,0Z"/></g></svg>