<?xml version="1.0" encoding="UTF-8"?><svg id="PDF" xmlns="http://www.w3.org/2000/svg" width="128" height="128" viewBox="0 0 128 128"><defs><style>.cls-1{fill:#fff;}</style></defs><g id="Calque_2"><path class="cls-1" d="M87.14,115.81c-.02-2.07-.96-3.24-2.57-3.21-1.53.03-2.46,1.18-2.49,3.14-.02,1.42,0,2.85,0,4.31h-30.13c0-1.71.06-3.32-.02-4.92-.08-1.54-1.17-2.55-2.56-2.53-1.39.02-2.43,1.05-2.48,2.6-.06,1.68-.08,3.36,0,5.04.15,2.71,2.24,4.86,4.95,4.88,10.08.06,20.16.06,30.24,0,2.88-.02,4.96-2.23,5.05-5.14.04-1.39.02-2.78,0-4.17Z"/><path class="cls-1" d="M64.31,116.04c1.68,1.64,3.72,1.64,5.4,0,3.1-3.04,6.17-6.11,9.21-9.22,1.63-1.67,1.64-3.78.14-5.26-1.49-1.47-3.59-1.42-5.26.21-.89.87-1.68,1.85-2.51,2.78-.44-.77-.49-1.26-.49-1.76,0-4.92-.03-9.85.01-14.77.01-1.4-.55-2.03-1.96-1.98-1.21.05-2.43.04-3.65,0-1.41-.05-1.98.58-1.96,1.98.04,3.48.01,6.95,0,10.43,0,1.94,0,3.88,0,5.82-.14.07-.28.14-.42.21-.86-.91-1.68-1.85-2.58-2.72-1.67-1.61-3.78-1.67-5.27-.2-1.5,1.48-1.5,3.59.14,5.26,3.04,3.11,6.11,6.18,9.21,9.22Z"/></g><g id="Calque_1"><path class="cls-1" d="M71.48,19.93c-.08,5.86-1.25,11.52-2.69,17.13-.75,2.94-1.69,5.83-2.48,8.76-.15.55-.13,1.29.12,1.79,2.66,5.31,6.26,9.98,10.07,14.49,1.91,2.27,3.98,4.4,5.89,6.67.84,1,1.65,1.29,3.01,1.13,4.11-.47,8.25-.79,12.39-.97,3.99-.18,8-.27,11.99-.12,3.57.13,7.02,1.04,9.9,3.33,2.84,2.26,4.45,5.13,3.71,8.88-.47,2.38-2.07,3.96-4.17,5.01-3.28,1.66-6.83,2.07-10.43,1.89-6.5-.32-12.15-3.07-17.39-6.65-2.91-1.99-5.61-4.3-8.35-6.53-.62-.5-1.13-.68-1.91-.55-8.77,1.4-17.25,3.95-25.81,6.22-1.48.39-3.2.5-4.35,1.36-1.12.83-1.63,2.46-2.44,3.72-4.62,7.23-9.38,14.38-15,20.88-3.41,3.93-7.55,6.88-12.79,7.95-1.91.39-3.83.4-5.74-.08-4.6-1.15-7-5.58-5.41-10.06,1.06-2.97,3.16-5.23,5.25-7.49,4.37-4.72,9.89-7.71,15.65-10.3,3.12-1.4,6.33-2.63,9.52-3.86.83-.32,1.35-.76,1.75-1.55,5.84-11.39,10.61-23.23,14.96-35.27,1.11-3.07,1.17-5.66-.12-8.72-2.29-5.43-3.9-11.14-4.3-17.07-.22-3.19-.31-6.45.1-9.6.83-6.46,4.98-8.07,10.48-7.3,3.44.48,5.62,2.6,6.86,5.77,1.41,3.59,1.59,7.38,1.71,11.14ZM64.36,51.91c-3.5,8.69-7.01,17.38-10.53,26.12,7.92-3.35,16.31-5.07,24.89-6.69-5.39-6.24-10.41-12.5-14.36-19.43ZM87.16,73.22c.5.42.78.64,1.04.88,3.1,2.75,6.54,4.96,10.33,6.62,3.59,1.57,7.29,2.75,11.3,2.42,1.88-.16,3.58-.75,4.68-2.41,1.62-2.44.9-5.43-1.68-6.91-2.32-1.34-4.92-1.67-7.53-1.84-4.86-.33-9.7.07-14.53.68-1.11.14-2.22.35-3.62.57ZM37.18,87.9c-.25,0-.4-.03-.52,0-.48.14-.96.28-1.42.47-6.98,3.01-13.36,6.99-18.86,12.24-1.34,1.28-2.44,2.9-3.32,4.54-.95,1.77-.24,3.34,1.55,4.28,1.73.9,3.45.69,5.16-.08,2.19-.99,3.97-2.54,5.6-4.26,4.31-4.54,7.66-9.77,10.74-15.19.37-.64.7-1.3,1.09-2.02ZM59.97,35.78c.24-.4.32-.48.35-.57,1.85-5.93,3.54-11.91,4.24-18.1.32-2.77.32-5.58-.64-8.27-.55-1.54-1.53-2.64-3.31-2.79-1.79-.15-3,.77-3.66,2.25-.62,1.38-1.14,2.87-1.33,4.37-.86,6.81.38,13.36,2.77,19.73.41,1.09.98,2.11,1.58,3.38Z"/></g></svg>